<svg width="1272" height="164" viewBox="0 0 1272 164" fill="none" xmlns="http://www.w3.org/2000/svg">
<path d="M0 77.7509C0 69.9485 0.984753 62.8667 2.95426 56.5054C4.94694 50.1442 7.76217 44.7024 11.4 40.18C15.0609 35.6576 19.4749 32.1788 24.642 29.7436C29.8091 27.2588 35.5786 26.0164 41.9505 26.0164C45.3566 26.0164 48.5773 26.3145 51.6127 26.9109C54.648 27.5073 57.4748 28.1533 60.0931 28.8491C62.7114 29.5448 65.1096 30.1909 67.2876 30.7873C69.4888 31.3836 71.4699 31.6818 73.2309 31.6818C73.648 31.6818 74.1114 31.5327 74.6211 31.2345C75.1541 30.9364 75.6754 30.5388 76.1852 30.0418C76.6949 29.4951 77.1699 28.8491 77.6101 28.1036C78.0504 27.3582 78.3979 26.5133 78.6528 25.5691H86.2991C86.9943 28.1533 87.6315 31.2594 88.2107 34.8873C88.79 38.4655 89.2766 42.1927 89.6705 46.0691C90.0875 49.9454 90.4119 53.797 90.6436 57.6236C90.8754 61.4006 90.9912 64.78 90.9912 67.7618H85.7778C85.3376 64.3327 84.6424 61.2267 83.6924 58.4436C82.7656 55.6109 81.6534 53.1012 80.3559 50.9145C79.0583 48.7279 77.6333 46.8145 76.0809 45.1745C74.5285 43.5345 72.9181 42.1927 71.2498 41.1491C69.6047 40.1054 67.948 39.3351 66.2797 38.8382C64.6114 38.2915 63.0242 38.0182 61.5181 38.0182C58.9925 38.0182 56.5712 38.7139 54.2541 40.1054C51.9602 41.497 49.9328 43.8079 48.1718 47.0382C46.4108 50.2685 44.9974 54.5424 43.9316 59.86C42.8889 65.1279 42.3676 71.663 42.3676 79.4654C42.3676 86.0751 42.9352 91.84 44.0706 96.76C45.2291 101.68 46.7584 105.78 48.6584 109.06C50.5816 112.29 52.7828 114.725 55.262 116.365C57.7413 117.956 60.3248 118.751 63.0126 118.751C64.6577 118.751 66.3492 118.453 68.087 117.856C69.8248 117.26 71.5163 116.365 73.1614 115.173C74.8297 113.98 76.4053 112.489 77.8882 110.7C79.3943 108.861 80.7266 106.699 81.8851 104.215C83.0437 101.73 83.9937 98.9218 84.7351 95.7909C85.4998 92.6103 85.9748 89.1067 86.1601 85.28H91.3388C91.3388 92.2376 90.493 98.5242 88.8016 104.14C87.1101 109.706 84.5845 114.452 81.2248 118.378C77.8882 122.304 73.7291 125.311 68.7474 127.398C63.7888 129.535 58.0309 130.604 51.4736 130.604C46.3529 130.604 41.5218 130.256 36.9804 129.56C32.4621 128.864 28.2914 127.721 24.4682 126.131C20.6682 124.541 17.2506 122.428 14.2152 119.795C11.203 117.111 8.64266 113.831 6.53413 109.955C4.4256 106.028 2.80365 101.407 1.66829 96.0891C0.556096 90.7715 0 84.6588 0 77.7509Z" fill="black"/>
<path d="M99.6802 109.88C99.6802 105.507 100.306 101.879 101.557 98.9964C102.808 96.1139 104.465 93.8527 106.527 92.2127C108.589 90.523 110.941 89.3551 113.583 88.7091C116.247 88.0133 118.981 87.6654 121.785 87.6654C124.264 87.6654 126.697 87.7151 129.084 87.8145C131.47 87.9139 133.718 88.063 135.826 88.2618C137.958 88.4109 139.893 88.6097 141.631 88.8582C143.368 89.1067 144.828 89.38 146.01 89.6782V73.5018C146.01 69.5261 145.743 66.1715 145.211 63.4382C144.701 60.7048 143.901 58.5182 142.812 56.8782C141.747 55.1885 140.379 53.9709 138.711 53.2254C137.043 52.48 135.073 52.1073 132.803 52.1073C131.158 52.1073 129.501 52.157 127.833 52.2564C126.187 52.3558 124.67 52.5048 123.28 52.7036C125.458 52.7036 127.45 53.0515 129.258 53.7473C131.065 54.3933 132.617 55.3376 133.915 56.58C135.212 57.8224 136.209 59.3382 136.904 61.1273C137.622 62.8667 137.981 64.8297 137.981 67.0164C137.981 69.5012 137.564 71.6879 136.73 73.5764C135.896 75.4151 134.749 76.9557 133.289 78.1982C131.853 79.4406 130.15 80.3848 128.18 81.0309C126.234 81.677 124.137 82 121.889 82C119.827 82 117.858 81.5776 115.981 80.7327C114.127 79.8879 112.482 78.7448 111.045 77.3036C109.609 75.8127 108.462 74.0733 107.605 72.0854C106.77 70.0479 106.353 67.8612 106.353 65.5255C106.353 63.0903 106.794 60.8788 107.674 58.8909C108.578 56.903 109.783 55.1636 111.289 53.6727C112.818 52.1321 114.579 50.8151 116.572 49.7218C118.587 48.6285 120.708 47.7339 122.932 47.0382C125.18 46.2927 127.473 45.7709 129.814 45.4727C132.154 45.1248 134.413 44.9509 136.591 44.9509C139.812 44.9509 143.067 45.0255 146.358 45.1745C149.648 45.2739 152.822 45.6218 155.881 46.2182C158.939 46.8145 161.812 47.7339 164.5 48.9764C167.188 50.2188 169.528 51.9582 171.521 54.1945C173.514 56.4309 175.078 59.2388 176.213 62.6182C177.371 65.9976 177.951 70.1473 177.951 75.0673V92.8836C177.951 97.5054 178.09 101.258 178.368 104.14C178.669 106.973 179.074 109.184 179.584 110.775C180.094 112.315 180.696 113.359 181.392 113.905C182.087 114.402 182.828 114.651 183.616 114.651C184.334 114.651 185.018 114.353 185.667 113.756C186.315 113.11 186.895 112.166 187.404 110.924C187.914 109.681 188.331 108.141 188.656 106.302C188.98 104.413 189.165 102.252 189.212 99.8164H193.139C193.139 104.289 192.826 108.141 192.201 111.371C191.575 114.552 190.695 117.26 189.559 119.496C188.447 121.733 187.115 123.522 185.562 124.864C184.01 126.156 182.307 127.175 180.453 127.92C178.623 128.665 176.676 129.138 174.614 129.336C172.552 129.585 170.443 129.709 168.289 129.709C165.67 129.709 163.249 129.585 161.025 129.336C158.823 129.088 156.842 128.541 155.081 127.696C153.32 126.901 151.803 125.733 150.528 124.193C149.254 122.652 148.246 120.59 147.504 118.005C146.531 119.447 145.292 120.863 143.786 122.255C142.303 123.646 140.437 124.913 138.19 126.056C135.965 127.15 133.301 128.019 130.196 128.665C127.091 129.361 123.453 129.709 119.283 129.709C116.548 129.709 113.988 129.262 111.602 128.367C109.238 127.473 107.164 126.181 105.38 124.491C103.619 122.801 102.229 120.739 101.209 118.304C100.19 115.819 99.6802 113.011 99.6802 109.88ZM130.439 106.227C130.439 107.221 130.532 108.29 130.717 109.433C130.926 110.526 131.25 111.545 131.69 112.489C132.154 113.433 132.745 114.228 133.463 114.875C134.204 115.471 135.12 115.769 136.209 115.769C136.834 115.769 137.518 115.744 138.259 115.695C139.024 115.645 139.835 115.521 140.692 115.322C141.55 115.073 142.453 114.701 143.403 114.204C144.353 113.707 145.338 113.011 146.358 112.116C146.126 110.079 146.01 107.644 146.01 104.811V96.8345C145.014 96.7351 144.006 96.6854 142.986 96.6854C141.967 96.6357 140.982 96.6109 140.032 96.6109C138.456 96.6109 137.066 96.7351 135.861 96.9836C134.656 97.2321 133.648 97.7291 132.837 98.4745C132.05 99.1703 131.447 100.139 131.03 101.382C130.636 102.624 130.439 104.239 130.439 106.227Z" fill="black"/>
<path d="M196.962 119.347C200.067 119.099 202.651 118.229 204.713 116.738C206.775 115.247 208.42 113.185 209.648 110.551C210.899 107.917 211.78 104.712 212.29 100.935C212.799 97.1576 213.054 92.8339 213.054 87.9636C213.054 82.9939 212.753 78.7448 212.151 75.2164C211.548 71.6382 210.598 68.7309 209.301 66.4945C208.003 64.2085 206.335 62.5436 204.296 61.5C202.28 60.4564 199.835 59.9345 196.962 59.9345V52.9273L243.605 46.2182V57.2509C244.902 55.3127 246.362 53.5982 247.984 52.1073C249.606 50.5667 251.309 49.2745 253.093 48.2309C254.877 47.1376 256.719 46.3176 258.619 45.7709C260.519 45.2242 262.396 44.9509 264.25 44.9509C267.123 44.9509 269.602 45.4727 271.688 46.5164C273.796 47.56 275.534 49.0509 276.901 50.9891C278.291 52.8776 279.311 55.1636 279.96 57.8473C280.632 60.4812 280.967 63.4133 280.967 66.6436C280.967 69.0788 280.62 71.4642 279.925 73.8C279.23 76.1358 278.222 78.2479 276.901 80.1364C275.58 81.9752 273.947 83.4661 272 84.6091C270.077 85.7521 267.876 86.3236 265.397 86.3236C263.149 86.3236 261.11 85.9509 259.28 85.2054C257.472 84.46 255.92 83.4164 254.622 82.0745C253.325 80.683 252.317 79.043 251.599 77.1545C250.904 75.2661 250.556 73.1788 250.556 70.8927C250.556 68.2091 250.927 65.8982 251.668 63.96C252.433 61.9721 253.406 60.357 254.588 59.1145C255.793 57.8224 257.125 56.8533 258.585 56.2073C260.044 55.5612 261.481 55.2133 262.894 55.1636C260.763 55.1636 258.816 55.3624 257.055 55.76C255.318 56.1576 253.684 56.7788 252.155 57.6236C250.626 58.4188 249.166 59.4873 247.776 60.8291C246.385 62.1212 244.995 63.6867 243.605 65.5255V87.2927C243.605 92.6103 243.894 97.2321 244.474 101.158C245.076 105.035 246.061 108.29 247.428 110.924C248.795 113.508 250.602 115.496 252.85 116.887C255.097 118.229 257.89 119.049 261.226 119.347V126.355H196.962V119.347Z" fill="black"/>
<path d="M316.592 119.347C320.068 119.099 322.953 118.229 325.247 116.738C327.541 115.247 329.371 112.862 330.738 109.582C332.105 106.302 333.067 102.003 333.623 96.6854C334.202 91.3182 334.492 84.6091 334.492 76.5582C334.492 71.1412 334.341 66.3951 334.04 62.32C333.762 58.2448 333.31 54.7661 332.684 51.8836C332.082 48.9515 331.294 46.5412 330.321 44.6527C329.371 42.7145 328.236 41.1988 326.915 40.1054C325.594 39.0121 324.077 38.2418 322.362 37.7945C320.647 37.3473 318.724 37.1236 316.592 37.1236V30.1164H373.836C378.053 30.1164 382.246 30.2655 386.417 30.5636C390.611 30.8618 394.62 31.5327 398.443 32.5764C402.266 33.62 405.823 35.1855 409.113 37.2727C412.403 39.3103 415.253 42.1182 417.663 45.6964C420.073 49.2248 421.961 53.623 423.328 58.8909C424.718 64.1588 425.413 70.5448 425.413 78.0491C425.413 83.8139 424.915 88.9327 423.919 93.4054C422.946 97.8782 421.59 101.804 419.852 105.184C418.115 108.513 416.052 111.346 413.666 113.682C411.302 116.018 408.719 117.981 405.915 119.571C403.135 121.161 400.204 122.404 397.122 123.298C394.04 124.193 390.912 124.864 387.738 125.311C384.587 125.758 381.459 126.056 378.354 126.205C375.249 126.305 372.283 126.355 369.456 126.355H316.592V119.347ZM370.638 117.335C372.839 117.086 374.855 116.39 376.686 115.247C378.539 114.104 380.126 112.116 381.447 109.284C382.768 106.451 383.799 102.55 384.54 97.58C385.282 92.5606 385.653 86.0503 385.653 78.0491C385.653 72.3836 385.49 67.4885 385.166 63.3636C384.865 59.2388 384.413 55.76 383.81 52.9273C383.208 50.0448 382.467 47.7339 381.586 45.9945C380.729 44.2055 379.744 42.8139 378.632 41.82C377.52 40.8261 376.292 40.1551 374.948 39.8073C373.604 39.4097 372.167 39.1612 370.638 39.0618V117.335Z" fill="black"/>
<path d="M445.294 18.1891C445.294 15.6545 445.757 13.2939 446.684 11.1073C447.634 8.87091 448.908 6.93273 450.507 5.29273C452.129 3.65273 454.018 2.36061 456.172 1.41636C458.35 0.472121 460.656 0 463.089 0C465.545 0 467.85 0.472121 470.005 1.41636C472.183 2.36061 474.083 3.65273 475.705 5.29273C477.327 6.93273 478.602 8.87091 479.528 11.1073C480.455 13.2939 480.919 15.6545 480.919 18.1891C480.919 20.6739 480.455 23.0097 479.528 25.1964C478.602 27.383 477.327 29.2964 475.705 30.9364C474.083 32.5764 472.183 33.8685 470.005 34.8127C467.85 35.757 465.545 36.2291 463.089 36.2291C460.656 36.2291 458.35 35.757 456.172 34.8127C454.018 33.8685 452.129 32.5764 450.507 30.9364C448.908 29.2964 447.634 27.383 446.684 25.1964C445.757 23.0097 445.294 20.6739 445.294 18.1891ZM431.669 119.347C434.867 119.099 437.555 118.229 439.733 116.738C441.934 115.247 443.707 113.185 445.051 110.551C446.418 107.917 447.402 104.712 448.005 100.935C448.607 97.1576 448.908 92.8339 448.908 87.9636C448.908 82.9939 448.607 78.7448 448.005 75.2164C447.402 71.6382 446.452 68.7309 445.155 66.4945C443.857 64.2085 442.189 62.5436 440.15 61.5C438.134 60.4564 435.69 59.9345 432.816 59.9345V52.9273L479.459 46.2182V87.9636C479.459 92.8339 479.656 97.1576 480.05 100.935C480.444 104.712 481.185 107.917 482.274 110.551C483.386 113.185 484.916 115.247 486.862 116.738C488.832 118.229 491.38 119.099 494.508 119.347V126.355H431.669V119.347Z" fill="black"/>
<path d="M499.374 109.88C499.374 105.507 500 101.879 501.251 98.9964C502.502 96.1139 504.159 93.8527 506.221 92.2127C508.283 90.523 510.635 89.3551 513.277 88.7091C515.941 88.0133 518.675 87.6654 521.479 87.6654C523.958 87.6654 526.391 87.7151 528.778 87.8145C531.164 87.9139 533.412 88.063 535.52 88.2618C537.652 88.4109 539.587 88.6097 541.325 88.8582C543.062 89.1067 544.522 89.38 545.704 89.6782V73.5018C545.704 69.5261 545.437 66.1715 544.905 63.4382C544.395 60.7048 543.595 58.5182 542.506 56.8782C541.441 55.1885 540.073 53.9709 538.405 53.2254C536.737 52.48 534.767 52.1073 532.497 52.1073C530.852 52.1073 529.195 52.157 527.526 52.2564C525.881 52.3558 524.364 52.5048 522.974 52.7036C525.152 52.7036 527.144 53.0515 528.952 53.7473C530.759 54.3933 532.311 55.3376 533.609 56.58C534.906 57.8224 535.903 59.3382 536.598 61.1273C537.316 62.8667 537.675 64.8297 537.675 67.0164C537.675 69.5012 537.258 71.6879 536.424 73.5764C535.59 75.4151 534.443 76.9557 532.983 78.1982C531.547 79.4406 529.844 80.3848 527.874 81.0309C525.928 81.677 523.831 82 521.583 82C519.521 82 517.552 81.5776 515.675 80.7327C513.821 79.8879 512.176 78.7448 510.739 77.3036C509.303 75.8127 508.156 74.0733 507.299 72.0854C506.464 70.0479 506.047 67.8612 506.047 65.5255C506.047 63.0903 506.488 60.8788 507.368 58.8909C508.272 56.903 509.477 55.1636 510.983 53.6727C512.512 52.1321 514.273 50.8151 516.266 49.7218C518.281 48.6285 520.402 47.7339 522.626 47.0382C524.874 46.2927 527.167 45.7709 529.508 45.4727C531.848 45.1248 534.107 44.9509 536.285 44.9509C539.506 44.9509 542.761 45.0255 546.051 45.1745C549.342 45.2739 552.516 45.6218 555.575 46.2182C558.633 46.8145 561.506 47.7339 564.194 48.9764C566.882 50.2188 569.222 51.9582 571.215 54.1945C573.208 56.4309 574.772 59.2388 575.907 62.6182C577.065 65.9976 577.645 70.1473 577.645 75.0673V92.8836C577.645 97.5054 577.784 101.258 578.062 104.14C578.363 106.973 578.768 109.184 579.278 110.775C579.788 112.315 580.39 113.359 581.086 113.905C581.781 114.402 582.522 114.651 583.31 114.651C584.028 114.651 584.712 114.353 585.361 113.756C586.009 113.11 586.589 112.166 587.098 110.924C587.608 109.681 588.025 108.141 588.349 106.302C588.674 104.413 588.859 102.252 588.906 99.8164H592.833C592.833 104.289 592.52 108.141 591.895 111.371C591.269 114.552 590.389 117.26 589.253 119.496C588.141 121.733 586.809 123.522 585.256 124.864C583.704 126.156 582.001 127.175 580.147 127.92C578.317 128.665 576.37 129.138 574.308 129.336C572.246 129.585 570.137 129.709 567.983 129.709C565.364 129.709 562.943 129.585 560.719 129.336C558.517 129.088 556.536 128.541 554.775 127.696C553.014 126.901 551.497 125.733 550.222 124.193C548.948 122.652 547.94 120.59 547.198 118.005C546.225 119.447 544.986 120.863 543.48 122.255C541.997 123.646 540.131 124.913 537.884 126.056C535.659 127.15 532.995 128.019 529.89 128.665C526.785 129.361 523.147 129.709 518.977 129.709C516.242 129.709 513.682 129.262 511.296 128.367C508.932 127.473 506.858 126.181 505.074 124.491C503.313 122.801 501.923 120.739 500.903 118.304C499.884 115.819 499.374 113.011 499.374 109.88ZM530.133 106.227C530.133 107.221 530.226 108.29 530.411 109.433C530.62 110.526 530.944 111.545 531.384 112.489C531.848 113.433 532.439 114.228 533.157 114.875C533.898 115.471 534.814 115.769 535.903 115.769C536.528 115.769 537.212 115.744 537.953 115.695C538.718 115.645 539.529 115.521 540.386 115.322C541.244 115.073 542.147 114.701 543.097 114.204C544.047 113.707 545.032 113.011 546.051 112.116C545.82 110.079 545.704 107.644 545.704 104.811V96.8345C544.708 96.7351 543.7 96.6854 542.68 96.6854C541.661 96.6357 540.676 96.6109 539.726 96.6109C538.15 96.6109 536.76 96.7351 535.555 96.9836C534.35 97.2321 533.342 97.7291 532.531 98.4745C531.744 99.1703 531.141 100.139 530.724 101.382C530.33 102.624 530.133 104.239 530.133 106.227Z" fill="black"/>
<path d="M594.293 146.855C594.293 144.817 594.745 142.978 595.648 141.338C596.552 139.748 597.768 138.356 599.298 137.164C600.85 135.971 602.634 134.927 604.65 134.033C606.666 133.188 608.786 132.492 611.01 131.945C609.11 130.206 607.57 128.119 606.388 125.684C605.229 123.199 604.65 120.391 604.65 117.26C604.65 115.073 604.951 113.061 605.554 111.222C606.156 109.333 606.967 107.619 607.987 106.078C609.029 104.538 610.234 103.196 611.601 102.053C612.992 100.86 614.474 99.8909 616.05 99.1454C613.548 98.2509 611.254 97.1079 609.168 95.7164C607.083 94.2751 605.287 92.5606 603.781 90.5727C602.275 88.5848 601.105 86.2988 600.271 83.7145C599.437 81.0806 599.02 78.0988 599.02 74.7691C599.02 71.2406 599.495 68.06 600.445 65.2273C601.395 62.3448 602.704 59.8103 604.372 57.6236C606.064 55.3873 608.068 53.4739 610.385 51.8836C612.702 50.2933 615.228 49.0012 617.962 48.0073C620.719 46.9636 623.627 46.1933 626.685 45.6964C629.767 45.1994 632.895 44.9509 636.07 44.9509C640.101 44.9509 643.994 45.3485 647.748 46.1436C651.524 46.8891 655.012 48.1067 658.209 49.7964C658.997 45.8703 660.051 42.8388 661.372 40.7018C662.716 38.5151 664.199 36.9248 665.821 35.9309C667.443 34.8873 669.146 34.2661 670.93 34.0673C672.714 33.8685 674.463 33.7691 676.178 33.7691C676.711 33.7691 677.255 33.7691 677.812 33.7691C678.368 33.7691 678.958 33.7939 679.584 33.8436C680.21 33.8933 680.893 33.943 681.635 33.9927C682.376 34.0424 683.187 34.117 684.068 34.2164C684.021 34.7133 683.975 35.4588 683.929 36.4527C683.882 37.397 683.813 38.4655 683.72 39.6582C683.627 40.8509 683.511 42.0436 683.372 43.2364C683.233 44.4291 683.048 45.4976 682.816 46.4418C682.561 47.4855 682.168 48.3551 681.635 49.0509C681.125 49.7467 680.534 50.3182 679.862 50.7654C679.213 51.2127 678.518 51.5358 677.777 51.7345C677.058 51.8836 676.375 51.9582 675.726 51.9582H667.663C666.782 51.9582 665.925 52.0079 665.091 52.1073C664.28 52.157 663.515 52.3558 662.797 52.7036C664.372 53.8964 665.798 55.263 667.072 56.8036C668.346 58.2945 669.424 59.9594 670.304 61.7982C671.208 63.5873 671.903 65.5751 672.39 67.7618C672.876 69.8988 673.119 72.2345 673.119 74.7691C673.119 78.2976 672.644 81.4285 671.694 84.1618C670.768 86.8951 669.458 89.2806 667.767 91.3182C666.099 93.3558 664.106 95.0703 661.789 96.4618C659.472 97.8036 656.935 98.897 654.177 99.7418C651.443 100.587 648.535 101.208 645.454 101.605C642.395 101.953 639.267 102.127 636.07 102.127C633.474 102.127 630.926 102.028 628.423 101.829C625.921 101.581 623.499 101.183 621.159 100.636L621.194 101.009C620.846 101.009 620.499 101.133 620.151 101.382C619.804 101.63 619.491 101.953 619.213 102.351C618.935 102.748 618.703 103.245 618.518 103.842C618.356 104.438 618.274 105.059 618.274 105.705C618.274 106.898 618.576 107.917 619.178 108.762C619.781 109.607 620.58 110.278 621.576 110.775C622.596 111.272 623.766 111.644 625.087 111.893C626.407 112.092 627.786 112.191 629.223 112.191H647.643C650.377 112.191 653.1 112.191 655.811 112.191C658.522 112.191 661.117 112.365 663.596 112.713C666.076 113.011 668.369 113.558 670.478 114.353C672.61 115.148 674.452 116.341 676.004 117.931C677.557 119.521 678.773 121.608 679.654 124.193C680.557 126.727 681.009 129.908 681.009 133.735C681.009 137.313 680.627 140.468 679.862 143.202C679.097 145.985 678.032 148.42 676.665 150.507C675.297 152.595 673.664 154.359 671.764 155.8C669.887 157.291 667.836 158.533 665.612 159.527C663.411 160.521 661.071 161.316 658.591 161.913C656.112 162.509 653.587 162.956 651.015 163.255C648.466 163.553 645.906 163.751 643.334 163.851C640.762 163.95 638.282 164 635.896 164C632.559 164 629.211 163.925 625.851 163.776C622.492 163.677 619.271 163.404 616.189 162.956C613.107 162.559 610.234 161.962 607.57 161.167C604.905 160.422 602.588 159.403 600.618 158.111C598.649 156.868 597.096 155.328 595.961 153.489C594.849 151.65 594.293 149.439 594.293 146.855ZM629.014 73.5764C629.014 76.26 629.141 78.8194 629.396 81.2545C629.651 83.6897 630.057 85.8515 630.613 87.74C631.169 89.6285 631.887 91.1442 632.768 92.2873C633.671 93.3806 634.76 93.9273 636.035 93.9273C637.309 93.9273 638.398 93.3806 639.302 92.2873C640.206 91.1442 640.935 89.6285 641.491 87.74C642.071 85.8515 642.488 83.6897 642.743 81.2545C642.998 78.8194 643.125 76.26 643.125 73.5764C643.125 70.7436 642.998 68.0848 642.743 65.6C642.488 63.1151 642.071 60.9533 641.491 59.1145C640.935 57.2261 640.206 55.76 639.302 54.7164C638.398 53.623 637.309 53.0764 636.035 53.0764C634.76 53.0764 633.671 53.623 632.768 54.7164C631.887 55.76 631.169 57.2261 630.613 59.1145C630.057 60.9533 629.651 63.1151 629.396 65.6C629.141 68.0848 629.014 70.7436 629.014 73.5764ZM619.213 146.333C619.213 148.321 619.642 149.936 620.499 151.178C621.379 152.47 622.619 153.464 624.218 154.16C625.817 154.856 627.74 155.328 629.987 155.576C632.235 155.875 634.737 156.024 637.495 156.024C638.931 156.024 640.402 155.974 641.909 155.875C643.415 155.825 644.886 155.701 646.323 155.502C647.759 155.303 649.115 154.98 650.389 154.533C651.663 154.135 652.776 153.613 653.726 152.967C654.676 152.321 655.429 151.501 655.985 150.507C656.541 149.563 656.819 148.42 656.819 147.078C656.819 145.587 656.46 144.32 655.741 143.276C655.023 142.233 653.992 141.363 652.648 140.667C651.327 140.021 649.729 139.499 647.852 139.102C645.975 138.704 643.878 138.406 641.561 138.207C639.244 138.058 636.742 137.959 634.054 137.909C631.389 137.859 628.585 137.835 625.643 137.835C624.948 137.835 624.241 137.785 623.523 137.685C622.828 137.586 622.132 137.462 621.437 137.313C619.954 139.549 619.213 142.556 619.213 146.333Z" fill="black"/>
<path d="M687.265 119.347C690.161 119.099 692.629 118.304 694.668 116.962C696.707 115.62 698.364 113.707 699.638 111.222C700.936 108.737 701.874 105.681 702.453 102.053C703.056 98.4248 703.357 94.1757 703.357 89.3054C703.357 83.1927 703.056 78.2727 702.453 74.5454C701.851 70.7685 700.901 67.8612 699.604 65.8236C698.306 63.7861 696.638 62.4194 694.599 61.7236C692.583 61.0279 690.138 60.68 687.265 60.68V53.6727L733.908 46.9636V59.2636C735.993 57.2757 738.125 55.4121 740.303 53.6727C742.504 51.9333 744.74 50.4176 747.011 49.1255C749.305 47.8333 751.633 46.8145 753.997 46.0691C756.36 45.3236 758.781 44.9509 761.261 44.9509C762.535 44.9509 763.833 45.0503 765.153 45.2491C766.474 45.4479 767.76 45.9448 769.011 46.74C770.286 47.4855 771.479 48.6285 772.591 50.1691C773.703 51.66 774.665 53.7473 775.476 56.4309C776.31 59.0648 776.97 62.3697 777.457 66.3454C777.944 70.3212 778.187 75.117 778.187 80.7327C778.187 82.6212 778.152 84.5594 778.083 86.5473C778.036 88.4854 778.013 90.6224 778.013 92.9582C778.013 97.3315 778.117 101.183 778.326 104.513C778.534 107.793 779.056 110.526 779.89 112.713C780.747 114.899 782.045 116.564 783.783 117.707C785.52 118.801 787.918 119.347 790.977 119.347V126.355H742.11V120.689C742.852 119.645 743.477 118.279 743.987 116.589C744.497 114.85 744.902 112.738 745.203 110.253C745.528 107.768 745.759 104.861 745.898 101.531C746.037 98.1515 746.107 94.3 746.107 89.9764C746.107 84.46 745.922 80.0618 745.551 76.7818C745.203 73.5018 744.717 71.017 744.091 69.3273C743.466 67.5879 742.724 66.4697 741.867 65.9727C741.033 65.4758 740.129 65.2273 739.156 65.2273C738.345 65.2273 737.487 65.4261 736.584 65.8236C735.703 66.1715 734.811 66.6685 733.908 67.3145V91.3182C733.908 95.6418 733.977 99.4188 734.116 102.649C734.255 105.83 734.475 108.588 734.777 110.924C735.101 113.259 735.518 115.222 736.028 116.813C736.538 118.353 737.163 119.645 737.905 120.689V126.355H687.265V119.347Z" fill="black"/>
<path d="M795.426 87.3673C795.426 80.1612 796.422 73.8994 798.415 68.5818C800.431 63.2145 803.269 58.7915 806.93 55.3127C810.591 51.7842 814.982 49.1751 820.103 47.4855C825.223 45.7461 830.912 44.8764 837.168 44.8764C843.401 44.8764 849.077 45.7461 854.198 47.4855C859.342 49.1751 863.733 51.7842 867.371 55.3127C871.032 58.7915 873.858 63.2145 875.851 68.5818C877.867 73.8994 878.875 80.1612 878.875 87.3673C878.875 94.5236 877.867 100.761 875.851 106.078C873.858 111.396 871.032 115.819 867.371 119.347C863.733 122.826 859.342 125.41 854.198 127.1C849.077 128.839 843.401 129.709 837.168 129.709C830.912 129.709 825.223 128.839 820.103 127.1C814.982 125.41 810.591 122.826 806.93 119.347C803.269 115.819 800.431 111.396 798.415 106.078C796.422 100.761 795.426 94.5236 795.426 87.3673ZM830.078 87.3673C830.078 91.9891 830.24 96.3873 830.564 100.562C830.888 104.736 831.352 108.414 831.954 111.595C832.58 114.725 833.321 117.235 834.179 119.124C835.059 120.962 836.055 121.882 837.168 121.882C838.257 121.882 839.23 120.962 840.087 119.124C840.968 117.235 841.709 114.725 842.312 111.595C842.937 108.414 843.412 104.736 843.737 100.562C844.061 96.3873 844.223 91.9891 844.223 87.3673C844.223 82.6958 844.061 78.2727 843.737 74.0982C843.412 69.8739 842.937 66.1715 842.312 62.9909C841.709 59.8103 840.968 57.2758 840.087 55.3873C839.23 53.4988 838.257 52.5545 837.168 52.5545C836.055 52.5545 835.059 53.4988 834.179 55.3873C833.321 57.2758 832.58 59.8103 831.954 62.9909C831.352 66.1715 830.888 69.8739 830.564 74.0982C830.24 78.2727 830.078 82.6958 830.078 87.3673Z" fill="black"/>
<path d="M891.109 130.529C890.854 129.336 890.611 127.622 890.379 125.385C890.171 123.149 889.985 120.813 889.823 118.378C889.684 115.943 889.568 113.607 889.476 111.371C889.383 109.085 889.336 107.345 889.336 106.153H893.611C894.237 108.389 895.43 110.427 897.191 112.265C898.952 114.104 901.165 115.67 903.83 116.962C906.494 118.254 909.553 119.248 913.005 119.944C916.458 120.639 920.177 120.987 924.162 120.987C926.456 120.987 928.263 120.341 929.584 119.049C930.905 117.757 931.565 116.142 931.565 114.204C931.565 112.514 931.148 111.172 930.314 110.178C929.503 109.135 928.391 108.315 926.977 107.718C925.564 107.072 923.919 106.6 922.042 106.302C920.165 105.954 918.161 105.631 916.029 105.333C913.921 105.035 911.742 104.687 909.495 104.289C907.271 103.842 905.093 103.245 902.961 102.5C900.852 101.705 898.86 100.686 896.983 99.4436C895.106 98.1515 893.461 96.5115 892.047 94.5236C890.634 92.486 889.51 90.0261 888.676 87.1436C887.865 84.2115 887.46 80.7079 887.46 76.6327C887.46 72.8558 887.807 69.4515 888.502 66.42C889.197 63.3885 890.182 60.7048 891.457 58.3691C892.731 56.0333 894.249 54.0206 896.01 52.3309C897.794 50.6412 899.752 49.2497 901.883 48.1564C904.038 47.063 906.344 46.2679 908.8 45.7709C911.256 45.2242 913.793 44.9509 916.411 44.9509C918.404 44.9509 920.443 45.0503 922.528 45.2491C924.637 45.3982 926.722 45.6218 928.785 45.92C930.847 46.1685 932.851 46.4418 934.797 46.74C936.744 47.0382 938.563 47.3364 940.254 47.6345C941.945 47.883 943.475 48.1067 944.842 48.3055C946.209 48.4545 947.333 48.5291 948.213 48.5291C949.047 48.5291 949.916 48.4794 950.82 48.38C951.724 48.2309 952.604 48.0073 953.461 47.7091C954.342 47.4109 955.153 47.0382 955.894 46.5909C956.659 46.1436 957.308 45.5721 957.841 44.8764C958.095 46.0691 958.327 47.6842 958.536 49.7218C958.767 51.7097 958.953 53.8218 959.092 56.0582C959.254 58.2448 959.381 60.357 959.474 62.3945C959.567 64.4321 959.613 66.097 959.613 67.3891H955.442C954.979 65.7491 953.902 64.0594 952.21 62.32C950.542 60.5309 948.41 58.9406 945.815 57.5491C943.22 56.1079 940.254 54.94 936.917 54.0454C933.604 53.1012 930.082 52.6291 926.352 52.6291C925.958 52.6291 925.448 52.7036 924.822 52.8527C924.22 52.9521 923.629 53.2254 923.05 53.6727C922.494 54.0703 922.007 54.6915 921.59 55.5364C921.173 56.3315 920.964 57.4 920.964 58.7418C920.964 60.3818 921.358 61.7236 922.146 62.7673C922.934 63.8109 924.011 64.6806 925.378 65.3764C926.745 66.0721 928.333 66.6685 930.14 67.1654C931.947 67.6127 933.87 68.0848 935.909 68.5818C937.949 69.0291 940.045 69.5758 942.2 70.2218C944.355 70.8182 946.452 71.6133 948.491 72.6073C950.53 73.5515 952.453 74.7442 954.261 76.1854C956.068 77.6267 957.655 79.4406 959.022 81.6273C960.389 83.7642 961.467 86.3485 962.255 89.38C963.042 92.3618 963.436 95.8654 963.436 99.8909C963.436 104.215 962.753 108.19 961.386 111.818C960.042 115.446 958.153 118.602 955.72 121.285C953.288 123.919 950.403 125.982 947.066 127.473C943.73 128.964 940.08 129.709 936.118 129.709C932.874 129.709 929.665 129.535 926.491 129.187C923.339 128.839 920.258 128.442 917.246 127.995C914.233 127.547 911.302 127.15 908.452 126.802C905.602 126.454 902.88 126.28 900.285 126.28C899.474 126.28 898.628 126.355 897.747 126.504C896.89 126.653 896.056 126.901 895.245 127.249C894.434 127.597 893.669 128.019 892.951 128.516C892.233 129.063 891.619 129.734 891.109 130.529Z" fill="black"/>
<path d="M979.25 58.5927H969.797V51.5854C972.484 51.5854 975.172 51.2624 977.86 50.6164C980.548 49.9703 983.12 49.0012 985.576 47.7091C988.055 46.3673 990.372 44.7024 992.527 42.7145C994.705 40.677 996.628 38.2915 998.297 35.5582C999.965 32.8248 1001.32 29.7436 1002.36 26.3145C1003.43 22.8358 1004.1 18.9842 1004.38 14.76H1011.75V48.3055H1033.54V58.5927H1011.75V81.8509C1011.75 88.6594 1011.87 94.4491 1012.13 99.22C1012.41 103.941 1012.91 107.793 1013.62 110.775C1014.37 113.707 1015.37 115.844 1016.65 117.185C1017.92 118.527 1019.57 119.198 1021.58 119.198C1023.18 119.198 1024.73 118.875 1026.24 118.229C1027.75 117.533 1029.08 116.39 1030.24 114.8C1031.4 113.16 1032.32 110.998 1033.02 108.315C1033.74 105.581 1034.1 102.152 1034.1 98.0273H1038.3C1038.3 101.407 1038.12 104.538 1037.74 107.42C1037.4 110.302 1036.77 112.936 1035.87 115.322C1034.99 117.658 1033.81 119.72 1032.32 121.509C1030.84 123.298 1028.96 124.814 1026.69 126.056C1024.44 127.249 1021.77 128.144 1018.66 128.74C1015.56 129.386 1011.96 129.709 1007.85 129.709C1005.1 129.709 1002.48 129.51 1000 129.113C997.52 128.765 995.215 128.069 993.083 127.025C990.975 125.982 989.063 124.541 987.348 122.702C985.657 120.863 984.209 118.502 983.004 115.62C981.799 112.688 980.872 109.159 980.223 105.035C979.575 100.86 979.25 95.94 979.25 90.2745V58.5927Z" fill="black"/>
<path d="M1055.26 18.1891C1055.26 15.6545 1055.73 13.2939 1056.65 11.1073C1057.6 8.87091 1058.88 6.93273 1060.48 5.29273C1062.1 3.65273 1063.99 2.36061 1066.14 1.41636C1068.32 0.472121 1070.62 0 1073.06 0C1075.51 0 1077.82 0.472121 1079.97 1.41636C1082.15 2.36061 1084.05 3.65273 1085.67 5.29273C1087.3 6.93273 1088.57 8.87091 1089.5 11.1073C1090.42 13.2939 1090.89 15.6545 1090.89 18.1891C1090.89 20.6739 1090.42 23.0097 1089.5 25.1964C1088.57 27.383 1087.3 29.2964 1085.67 30.9364C1084.05 32.5764 1082.15 33.8685 1079.97 34.8127C1077.82 35.757 1075.51 36.2291 1073.06 36.2291C1070.62 36.2291 1068.32 35.757 1066.14 34.8127C1063.99 33.8685 1062.1 32.5764 1060.48 30.9364C1058.88 29.2964 1057.6 27.383 1056.65 25.1964C1055.73 23.0097 1055.26 20.6739 1055.26 18.1891ZM1041.64 119.347C1044.83 119.099 1047.52 118.229 1049.7 116.738C1051.9 115.247 1053.67 113.185 1055.02 110.551C1056.39 107.917 1057.37 104.712 1057.97 100.935C1058.58 97.1576 1058.88 92.8339 1058.88 87.9636C1058.88 82.9939 1058.58 78.7448 1057.97 75.2164C1057.37 71.6382 1056.42 68.7309 1055.12 66.4945C1053.83 64.2085 1052.16 62.5436 1050.12 61.5C1048.1 60.4564 1045.66 59.9345 1042.78 59.9345V52.9273L1089.43 46.2182V87.9636C1089.43 92.8339 1089.62 97.1576 1090.02 100.935C1090.41 104.712 1091.15 107.917 1092.24 110.551C1093.35 113.185 1094.88 115.247 1096.83 116.738C1098.8 118.229 1101.35 119.099 1104.48 119.347V126.355H1041.64V119.347Z" fill="black"/>
<path d="M1109.27 88.0382C1109.27 82.82 1109.84 78.1485 1110.98 74.0236C1112.13 69.8491 1113.73 66.1715 1115.77 62.9909C1117.83 59.7606 1120.28 57.0273 1123.11 54.7909C1125.93 52.5048 1129.04 50.6412 1132.42 49.2C1135.8 47.7091 1139.39 46.6406 1143.19 45.9945C1147.02 45.2988 1150.92 44.9509 1154.91 44.9509C1157.64 44.9509 1160.33 45.1745 1162.97 45.6218C1165.64 46.0691 1168.15 46.74 1170.51 47.6345C1172.88 48.4794 1175.05 49.5479 1177.05 50.84C1179.06 52.1321 1180.8 53.5982 1182.26 55.2382C1183.72 56.8782 1184.86 58.717 1185.67 60.7545C1186.5 62.7424 1186.92 64.9042 1186.92 67.24C1186.92 69.6751 1186.57 72.0358 1185.87 74.3218C1185.18 76.5582 1184.17 78.5709 1182.85 80.36C1181.53 82.0994 1179.9 83.5158 1177.95 84.6091C1176.03 85.6527 1173.83 86.1745 1171.35 86.1745C1169.01 86.1745 1166.81 85.777 1164.74 84.9818C1162.7 84.1867 1160.93 83.0933 1159.43 81.7018C1157.92 80.3103 1156.73 78.6703 1155.85 76.7818C1154.99 74.8436 1154.56 72.7315 1154.56 70.4454C1154.56 68.5073 1154.85 66.6188 1155.43 64.78C1156.03 62.8915 1156.91 61.2267 1158.07 59.7854C1159.25 58.2945 1160.71 57.1018 1162.45 56.2073C1164.19 55.3127 1166.21 54.8655 1168.53 54.8655C1167.21 54.0703 1165.83 53.4988 1164.4 53.1509C1162.98 52.803 1161.55 52.6291 1160.09 52.6291C1157.98 52.6291 1155.93 53.1509 1153.93 54.1945C1151.96 55.1885 1150.2 56.903 1148.65 59.3382C1147.12 61.7236 1145.89 64.9291 1144.97 68.9545C1144.04 72.9303 1143.58 77.9 1143.58 83.8636C1143.58 87.74 1143.83 91.2685 1144.34 94.4491C1144.87 97.58 1145.6 100.388 1146.53 102.873C1147.46 105.358 1148.55 107.519 1149.8 109.358C1151.07 111.197 1152.44 112.713 1153.9 113.905C1155.38 115.098 1156.93 115.993 1158.56 116.589C1160.2 117.185 1161.85 117.484 1163.49 117.484C1166.16 117.484 1168.73 116.987 1171.21 115.993C1173.69 114.999 1175.88 113.657 1177.78 111.967C1179.68 110.228 1181.19 108.24 1182.33 106.004C1183.46 103.718 1184.03 101.282 1184.03 98.6982H1188.31C1188.31 102.177 1187.89 105.358 1187.06 108.24C1186.25 111.122 1185.1 113.707 1183.62 115.993C1182.13 118.279 1180.36 120.292 1178.3 122.031C1176.26 123.721 1174.01 125.137 1171.56 126.28C1169.12 127.423 1166.52 128.268 1163.74 128.815C1160.98 129.411 1158.14 129.709 1155.22 129.709C1151.03 129.709 1146.98 129.436 1143.09 128.889C1139.2 128.342 1135.55 127.448 1132.14 126.205C1128.74 124.913 1125.63 123.224 1122.83 121.136C1120.02 119.049 1117.61 116.465 1115.6 113.384C1113.61 110.302 1112.05 106.675 1110.94 102.5C1109.83 98.3254 1109.27 93.5048 1109.27 88.0382Z" fill="black"/>
<path d="M1199.67 130.529C1199.42 129.336 1199.17 127.622 1198.94 125.385C1198.73 123.149 1198.55 120.813 1198.39 118.378C1198.25 115.943 1198.13 113.607 1198.04 111.371C1197.95 109.085 1197.9 107.345 1197.9 106.153H1202.18C1202.8 108.389 1203.99 110.427 1205.76 112.265C1207.52 114.104 1209.73 115.67 1212.39 116.962C1215.06 118.254 1218.12 119.248 1221.57 119.944C1225.02 120.639 1228.74 120.987 1232.73 120.987C1235.02 120.987 1236.83 120.341 1238.15 119.049C1239.47 117.757 1240.13 116.142 1240.13 114.204C1240.13 112.514 1239.71 111.172 1238.88 110.178C1238.07 109.135 1236.95 108.315 1235.54 107.718C1234.13 107.072 1232.48 106.6 1230.61 106.302C1228.73 105.954 1226.72 105.631 1224.59 105.333C1222.48 105.035 1220.31 104.687 1218.06 104.289C1215.83 103.842 1213.66 103.245 1211.52 102.5C1209.42 101.705 1207.42 100.686 1205.55 99.4436C1203.67 98.1515 1202.02 96.5115 1200.61 94.5236C1199.2 92.486 1198.07 90.0261 1197.24 87.1436C1196.43 84.2115 1196.02 80.7079 1196.02 76.6327C1196.02 72.8558 1196.37 69.4515 1197.07 66.42C1197.76 63.3885 1198.75 60.7048 1200.02 58.3691C1201.29 56.0333 1202.81 54.0206 1204.57 52.3309C1206.36 50.6412 1208.32 49.2497 1210.45 48.1564C1212.6 47.063 1214.91 46.2679 1217.36 45.7709C1219.82 45.2242 1222.36 44.9509 1224.98 44.9509C1226.97 44.9509 1229.01 45.0503 1231.09 45.2491C1233.2 45.3982 1235.29 45.6218 1237.35 45.92C1239.41 46.1685 1241.41 46.4418 1243.36 46.74C1245.31 47.0382 1247.13 47.3364 1248.82 47.6345C1250.51 47.883 1252.04 48.1067 1253.41 48.3055C1254.77 48.4545 1255.9 48.5291 1256.78 48.5291C1257.61 48.5291 1258.48 48.4794 1259.38 48.38C1260.29 48.2309 1261.17 48.0073 1262.03 47.7091C1262.91 47.4109 1263.72 47.0382 1264.46 46.5909C1265.22 46.1436 1265.87 45.5721 1266.4 44.8764C1266.66 46.0691 1266.89 47.6842 1267.1 49.7218C1267.33 51.7097 1267.52 53.8218 1267.66 56.0582C1267.82 58.2448 1267.95 60.357 1268.04 62.3945C1268.13 64.4321 1268.18 66.097 1268.18 67.3891H1264.01C1263.54 65.7491 1262.47 64.0594 1260.77 62.32C1259.11 60.5309 1256.97 58.9406 1254.38 57.5491C1251.78 56.1079 1248.82 54.94 1245.48 54.0454C1242.17 53.1012 1238.65 52.6291 1234.92 52.6291C1234.52 52.6291 1234.01 52.7036 1233.39 52.8527C1232.78 52.9521 1232.19 53.2254 1231.61 53.6727C1231.06 54.0703 1230.57 54.6915 1230.15 55.5364C1229.74 56.3315 1229.53 57.4 1229.53 58.7418C1229.53 60.3818 1229.92 61.7236 1230.71 62.7673C1231.5 63.8109 1232.58 64.6806 1233.94 65.3764C1235.31 66.0721 1236.9 66.6685 1238.7 67.1654C1240.51 67.6127 1242.43 68.0848 1244.47 68.5818C1246.51 69.0291 1248.61 69.5758 1250.76 70.2218C1252.92 70.8182 1255.02 71.6133 1257.05 72.6073C1259.09 73.5515 1261.02 74.7442 1262.82 76.1854C1264.63 77.6267 1266.22 79.4406 1267.59 81.6273C1268.95 83.7642 1270.03 86.3485 1270.82 89.38C1271.61 92.3618 1272 95.8654 1272 99.8909C1272 104.215 1271.32 108.19 1269.95 111.818C1268.61 115.446 1266.72 118.602 1264.28 121.285C1261.85 123.919 1258.97 125.982 1255.63 127.473C1252.29 128.964 1248.64 129.709 1244.68 129.709C1241.44 129.709 1238.23 129.535 1235.05 129.187C1231.9 128.839 1228.82 128.442 1225.81 127.995C1222.8 127.547 1219.87 127.15 1217.02 126.802C1214.17 126.454 1211.44 126.28 1208.85 126.28C1208.04 126.28 1207.19 126.355 1206.31 126.504C1205.45 126.653 1204.62 126.901 1203.81 127.249C1203 127.597 1202.23 128.019 1201.51 128.516C1200.8 129.063 1200.18 129.734 1199.67 130.529Z" fill="black"/>
</svg>
