<svg width="191" height="83" viewBox="0 0 191 83" fill="none" xmlns="http://www.w3.org/2000/svg">
<rect width="191" height="83" rx="22" fill="#D5600F"/>
<path d="M41.6 49.32C40.1867 49.32 38.9733 49.02 37.96 48.42C36.9467 47.8067 36.1667 46.9667 35.62 45.9C35.0733 44.82 34.8 43.6 34.8 42.24C34.8 41.32 34.94 40.4133 35.22 39.52C35.5133 38.6133 35.9467 37.8 36.52 37.08C37.0933 36.3467 37.8133 35.7667 38.68 35.34C39.56 34.9 40.58 34.68 41.74 34.68C42.14 34.68 42.5733 34.72 43.04 34.8C43.5067 34.88 43.9667 35 44.42 35.16C44.8867 35.3067 45.3 35.4867 45.66 35.7L45.58 34.82H46.98V39.46H45.88C45.7733 38.6733 45.54 38.02 45.18 37.5C44.82 36.98 44.36 36.5867 43.8 36.32C43.2533 36.04 42.64 35.9 41.96 35.9C41.2667 35.9 40.64 36.06 40.08 36.38C39.5333 36.7 39.0667 37.1333 38.68 37.68C38.3067 38.2267 38.02 38.8533 37.82 39.56C37.62 40.2667 37.52 41.02 37.52 41.82C37.52 42.9933 37.7 44.0467 38.06 44.98C38.4333 45.9 38.96 46.6267 39.64 47.16C40.32 47.68 41.14 47.94 42.1 47.94C42.3933 47.94 42.72 47.92 43.08 47.88C43.44 47.8267 43.8 47.7467 44.16 47.64C44.52 47.5333 44.84 47.4067 45.12 47.26V45.2C45.12 44.8533 45.1267 44.5133 45.14 44.18C45.1533 43.8467 45.1667 43.5733 45.18 43.36C44.9533 43.3733 44.6933 43.3867 44.4 43.4C44.1067 43.4 43.8733 43.4067 43.7 43.42V42.1H48.76V43.2C48.48 43.2133 48.2533 43.2667 48.08 43.36C47.9067 43.44 47.7667 43.5667 47.66 43.74C47.5533 43.9 47.48 44.1 47.44 44.34C47.4 44.58 47.38 44.8533 47.38 45.16V48.3H46.88C46.56 48.3 46.2067 48.3533 45.82 48.46C45.4333 48.5533 45.0133 48.6733 44.56 48.82C44.1467 48.9533 43.6867 49.0667 43.18 49.16C42.6733 49.2667 42.1467 49.32 41.6 49.32ZM56.9972 44.06C56.9972 43.4867 56.9105 43.0733 56.7372 42.82C56.5772 42.5667 56.3372 42.4133 56.0172 42.36C55.7105 42.3067 55.3372 42.2867 54.8972 42.3L54.0772 42.34V46.04C54.0772 46.4 54.0705 46.7333 54.0572 47.04C54.0439 47.3333 54.0239 47.5667 53.9972 47.74L57.0572 47.72C57.5239 47.72 57.9505 47.6333 58.3372 47.46C58.7239 47.2733 59.0372 46.9667 59.2772 46.54C59.5172 46.1 59.6372 45.5067 59.6372 44.76H60.7372L60.6372 49H50.1572V47.9C50.5305 47.8867 50.8172 47.8267 51.0172 47.72C51.2172 47.6 51.3572 47.4 51.4372 47.12C51.5172 46.8267 51.5572 46.4267 51.5572 45.92V37.94C51.5572 37.6067 51.5639 37.2867 51.5772 36.98C51.6039 36.6733 51.6239 36.4333 51.6372 36.26C51.4105 36.2733 51.1505 36.2867 50.8572 36.3C50.5639 36.3 50.3305 36.3067 50.1572 36.32V35H60.0172L60.1372 38.76H59.0372C59.0372 38 58.9105 37.4333 58.6572 37.06C58.4172 36.6733 58.1039 36.4133 57.7172 36.28C57.3305 36.1467 56.9305 36.0867 56.5172 36.1L55.4772 36.12C55.1172 36.1333 54.8372 36.1933 54.6372 36.3C54.4372 36.4067 54.2905 36.6 54.1972 36.88C54.1172 37.1467 54.0772 37.5467 54.0772 38.08V41.14L56.8772 41.16L56.7772 39.42H58.0972V44.06H56.9972ZM72.9981 39.42C72.9981 38.6733 72.9048 38.06 72.7181 37.58C72.5315 37.0867 72.2515 36.72 71.8781 36.48C71.5181 36.24 71.0581 36.1267 70.4981 36.14H69.2781V46.02C69.2781 46.38 69.2715 46.7133 69.2581 47.02C69.2448 47.3267 69.2248 47.5667 69.1981 47.74C69.4515 47.7267 69.7381 47.7133 70.0581 47.7C70.3915 47.6867 70.6448 47.68 70.8181 47.68V49H65.3581V47.9C65.7315 47.8867 66.0181 47.82 66.2181 47.7C66.4181 47.58 66.5581 47.38 66.6381 47.1C66.7181 46.82 66.7581 46.4267 66.7581 45.92L66.7781 36.16H65.4781C64.6915 36.1733 64.0915 36.44 63.6781 36.96C63.2648 37.48 63.0581 38.3 63.0581 39.42H61.9381L62.0381 35H74.0181L74.1381 39.42H72.9981ZM94.8213 53.36C94.2479 53.36 93.7813 53.34 93.4213 53.3C93.0613 53.26 92.7279 53.16 92.4213 53C92.1279 52.8533 91.7879 52.6067 91.4013 52.26C90.8279 51.74 90.3346 51.26 89.9213 50.82C89.5213 50.38 89.1279 50.02 88.7413 49.74C88.3679 49.46 87.9213 49.32 87.4013 49.32C86.1746 49.3067 85.1213 49.0867 84.2413 48.66C83.3746 48.22 82.6679 47.6467 82.1213 46.94C81.5879 46.2333 81.1946 45.4467 80.9413 44.58C80.6879 43.7133 80.5613 42.8533 80.5613 42C80.5613 41.16 80.7013 40.3133 80.9813 39.46C81.2746 38.5933 81.7079 37.8 82.2812 37.08C82.8679 36.36 83.6013 35.78 84.4813 35.34C85.3613 34.9 86.3879 34.68 87.5613 34.68C88.7879 34.68 89.8413 34.9 90.7213 35.34C91.6013 35.78 92.3213 36.3667 92.8813 37.1C93.4546 37.82 93.8746 38.6067 94.1413 39.46C94.4213 40.3133 94.5613 41.16 94.5613 42C94.5613 42.6933 94.4613 43.3933 94.2613 44.1C94.0746 44.8067 93.7813 45.4867 93.3813 46.14C92.9813 46.78 92.4813 47.3467 91.8813 47.84C91.2813 48.3333 90.5813 48.7133 89.7812 48.98C90.1546 48.98 90.4879 49.0067 90.7813 49.06C91.0746 49.1133 91.3679 49.22 91.6613 49.38C91.9679 49.5533 92.3013 49.8133 92.6613 50.16C93.1279 50.5867 93.5013 50.9333 93.7813 51.2C94.0746 51.48 94.3146 51.6933 94.5013 51.84C94.7013 52 94.8813 52.1067 95.0413 52.16C95.2146 52.2133 95.4013 52.24 95.6013 52.24V53.36H94.8213ZM87.7213 48.08C88.4679 48.08 89.0946 47.9067 89.6013 47.56C90.1213 47.2133 90.5413 46.76 90.8613 46.2C91.1813 45.64 91.4146 45.0267 91.5613 44.36C91.7213 43.68 91.8013 43.0133 91.8013 42.36C91.8013 41.4667 91.7079 40.6333 91.5213 39.86C91.3479 39.0733 91.0746 38.3867 90.7013 37.8C90.3413 37.2133 89.8813 36.7533 89.3213 36.42C88.7613 36.0733 88.1146 35.9067 87.3813 35.92C86.6346 35.9333 86.0013 36.12 85.4813 36.48C84.9746 36.8267 84.5613 37.2867 84.2413 37.86C83.9213 38.42 83.6879 39.04 83.5413 39.72C83.3946 40.4 83.3213 41.0667 83.3213 41.72C83.3213 42.3867 83.4013 43.0867 83.5613 43.82C83.7213 44.5533 83.9746 45.2467 84.3213 45.9C84.6679 46.5533 85.1213 47.08 85.6813 47.48C86.2413 47.88 86.9213 48.08 87.7213 48.08ZM101.13 36.1C100.783 36.1133 100.503 36.1733 100.29 36.28C100.09 36.3867 99.9433 36.56 99.85 36.8C99.77 37.0267 99.73 37.3533 99.73 37.78V43.14C99.73 43.94 99.8033 44.64 99.95 45.24C100.11 45.8267 100.337 46.32 100.63 46.72C100.923 47.12 101.283 47.42 101.71 47.62C102.15 47.82 102.657 47.92 103.23 47.92C104.03 47.9467 104.703 47.78 105.25 47.42C105.81 47.06 106.23 46.5333 106.51 45.84C106.79 45.1467 106.93 44.3 106.93 43.3L106.95 37.94C106.95 37.6067 106.957 37.2867 106.97 36.98C106.983 36.6733 107.003 36.4333 107.03 36.26C106.803 36.2733 106.543 36.2867 106.25 36.3C105.957 36.3 105.723 36.3067 105.55 36.32V35H109.87V36.1C109.51 36.1133 109.223 36.18 109.01 36.3C108.81 36.4067 108.67 36.6 108.59 36.88C108.51 37.16 108.47 37.56 108.47 38.08L108.45 42.96C108.45 44.0133 108.323 44.94 108.07 45.74C107.83 46.5267 107.47 47.1867 106.99 47.72C106.51 48.2533 105.93 48.6533 105.25 48.92C104.57 49.1867 103.797 49.32 102.93 49.32C101.823 49.32 100.897 49.1667 100.15 48.86C99.4167 48.5533 98.83 48.1133 98.39 47.54C97.9633 46.9533 97.6567 46.2667 97.47 45.48C97.2967 44.68 97.21 43.7867 97.21 42.8V38.22C97.21 37.8733 97.2167 37.5133 97.23 37.14C97.2567 36.7533 97.2767 36.46 97.29 36.26C97.0633 36.2733 96.8033 36.2867 96.51 36.3C96.2167 36.3 95.9833 36.3067 95.81 36.32V35H101.13V36.1ZM118.05 49.32C116.783 49.32 115.703 49.1067 114.81 48.68C113.916 48.2533 113.19 47.6867 112.63 46.98C112.083 46.26 111.683 45.4667 111.43 44.6C111.176 43.7333 111.05 42.8667 111.05 42C111.05 41.16 111.19 40.3133 111.47 39.46C111.75 38.5933 112.176 37.8 112.75 37.08C113.336 36.36 114.07 35.78 114.95 35.34C115.83 34.9 116.863 34.68 118.05 34.68C119.263 34.68 120.31 34.9 121.19 35.34C122.083 35.78 122.81 36.3667 123.37 37.1C123.943 37.82 124.363 38.6067 124.63 39.46C124.91 40.3133 125.05 41.16 125.05 42C125.05 42.8267 124.91 43.6667 124.63 44.52C124.35 45.3733 123.916 46.1667 123.33 46.9C122.756 47.62 122.03 48.2067 121.15 48.66C120.27 49.1 119.236 49.32 118.05 49.32ZM118.21 48.08C118.956 48.08 119.583 47.9067 120.09 47.56C120.61 47.2133 121.03 46.76 121.35 46.2C121.67 45.64 121.903 45.0267 122.05 44.36C122.21 43.68 122.29 43.0133 122.29 42.36C122.29 41.4667 122.196 40.6333 122.01 39.86C121.823 39.0733 121.543 38.3867 121.17 37.8C120.81 37.2133 120.35 36.7533 119.79 36.42C119.23 36.0733 118.583 35.9067 117.85 35.92C117.116 35.9333 116.49 36.12 115.97 36.48C115.463 36.8267 115.043 37.2867 114.71 37.86C114.39 38.42 114.156 39.04 114.01 39.72C113.863 40.4 113.79 41.0667 113.79 41.72C113.79 42.3867 113.87 43.0867 114.03 43.82C114.19 44.5533 114.443 45.2467 114.79 45.9C115.136 46.5533 115.59 47.08 116.15 47.48C116.723 47.88 117.41 48.08 118.21 48.08ZM137.158 39.42C137.158 38.6733 137.065 38.06 136.878 37.58C136.692 37.0867 136.412 36.72 136.038 36.48C135.678 36.24 135.218 36.1267 134.658 36.14H133.438V46.02C133.438 46.38 133.432 46.7133 133.418 47.02C133.405 47.3267 133.385 47.5667 133.358 47.74C133.612 47.7267 133.898 47.7133 134.218 47.7C134.552 47.6867 134.805 47.68 134.978 47.68V49H129.518V47.9C129.892 47.8867 130.178 47.82 130.378 47.7C130.578 47.58 130.718 47.38 130.798 47.1C130.878 46.82 130.918 46.4267 130.918 45.92L130.938 36.16H129.638C128.852 36.1733 128.252 36.44 127.838 36.96C127.425 37.48 127.218 38.3 127.218 39.42H126.098L126.198 35H138.178L138.298 39.42H137.158ZM146.568 44.06C146.568 43.4867 146.481 43.0733 146.308 42.82C146.148 42.5667 145.908 42.4133 145.588 42.36C145.281 42.3067 144.908 42.2867 144.468 42.3L143.648 42.34V46.04C143.648 46.4 143.641 46.7333 143.628 47.04C143.614 47.3333 143.594 47.5667 143.568 47.74L146.628 47.72C147.094 47.72 147.521 47.6333 147.908 47.46C148.294 47.2733 148.608 46.9667 148.848 46.54C149.088 46.1 149.208 45.5067 149.208 44.76H150.308L150.208 49H139.728V47.9C140.101 47.8867 140.388 47.8267 140.588 47.72C140.788 47.6 140.928 47.4 141.008 47.12C141.088 46.8267 141.128 46.4267 141.128 45.92V37.94C141.128 37.6067 141.134 37.2867 141.148 36.98C141.174 36.6733 141.194 36.4333 141.208 36.26C140.981 36.2733 140.721 36.2867 140.428 36.3C140.134 36.3 139.901 36.3067 139.728 36.32V35H149.588L149.707 38.76H148.608C148.608 38 148.481 37.4333 148.228 37.06C147.988 36.6733 147.674 36.4133 147.288 36.28C146.901 36.1467 146.501 36.0867 146.088 36.1L145.048 36.12C144.688 36.1333 144.408 36.1933 144.208 36.3C144.008 36.4067 143.861 36.6 143.768 36.88C143.688 37.1467 143.648 37.5467 143.648 38.08V41.14L146.448 41.16L146.348 39.42H147.668V44.06H146.568ZM160.188 39.4C160.095 38.6933 159.902 38.08 159.608 37.56C159.315 37.0267 158.922 36.62 158.428 36.34C157.948 36.0467 157.368 35.9 156.688 35.9C156.035 35.9 155.488 36.0867 155.048 36.46C154.622 36.8333 154.408 37.2933 154.408 37.84C154.408 38.2933 154.535 38.6867 154.788 39.02C155.055 39.3533 155.435 39.66 155.928 39.94C156.422 40.2067 157.008 40.4867 157.688 40.78C158.195 40.9933 158.708 41.2333 159.228 41.5C159.748 41.7533 160.228 42.06 160.668 42.42C161.108 42.78 161.462 43.2 161.728 43.68C162.008 44.1467 162.148 44.7067 162.148 45.36C162.148 46.1333 161.942 46.82 161.528 47.42C161.128 48.02 160.555 48.4867 159.808 48.82C159.062 49.1533 158.182 49.32 157.168 49.32C156.608 49.32 156.015 49.2333 155.388 49.06C154.762 48.9 154.188 48.6533 153.668 48.32L153.728 49.18H152.368L152.328 44.64H153.468C153.615 45.7733 154.035 46.6333 154.728 47.22C155.422 47.7933 156.255 48.08 157.228 48.08C157.722 48.08 158.162 47.9933 158.548 47.82C158.935 47.6333 159.235 47.3867 159.448 47.08C159.675 46.76 159.788 46.4 159.788 46C159.788 45.48 159.628 45.0533 159.308 44.72C158.988 44.3867 158.582 44.1 158.088 43.86C157.595 43.62 157.082 43.3867 156.548 43.16C155.948 42.9067 155.382 42.64 154.848 42.36C154.315 42.0667 153.842 41.74 153.428 41.38C153.028 41.0067 152.708 40.58 152.468 40.1C152.242 39.62 152.128 39.0533 152.128 38.4C152.128 38.0133 152.202 37.6067 152.348 37.18C152.495 36.74 152.735 36.3333 153.068 35.96C153.415 35.5867 153.875 35.28 154.448 35.04C155.022 34.8 155.735 34.68 156.588 34.68C157.122 34.68 157.702 34.76 158.328 34.92C158.968 35.0667 159.528 35.3133 160.008 35.66L159.928 34.82H161.308V39.4H160.188Z" fill="white"/>
</svg>
