<svg width="358" height="66" viewBox="0 0 358 66" fill="none" xmlns="http://www.w3.org/2000/svg">
<rect width="358" height="66" rx="7" fill="#FFD600"/>
<g clip-path="url(#clip0_16_2)">
<path d="M30.6553 28.3792H11.3451C11.1547 28.3792 11.0003 28.2171 11.0003 28.0172V14.9827C11.0003 14.7828 11.1547 14.6207 11.3451 14.6207H30.6554C30.8458 14.6207 31.0002 14.7828 31.0002 14.9827V28.0172C31.0002 28.2171 30.8458 28.3792 30.6553 28.3792Z" fill="#41479B"/>
<path d="M31.0002 14.9827C31.0002 14.7828 30.8458 14.6207 30.6553 14.6207H29.1126L22.7243 19.0153V14.6207H19.276V19.0153L12.8878 14.6207H11.3451C11.1547 14.6207 11.0003 14.7828 11.0003 14.9827V15.9192L16.4811 19.6896H11.0003V23.3103H16.4811L11.0003 27.0807V28.0172C11.0003 28.2171 11.1547 28.3792 11.3451 28.3792H12.8879L19.2761 23.9846V28.3792H22.7244V23.9846L29.1126 28.3792H30.6554C30.8458 28.3792 31.0003 28.2171 31.0003 28.0172V27.0807L25.5195 23.3103H31.0002V19.6896H25.5194L31.0002 15.9192V14.9827Z" fill="#F5F5F5"/>
<path d="M31.0002 20.4138H22.0347V14.6207H19.9657V20.4138H11.0003V22.5861H19.9657V28.3792H22.0347V22.5861H31.0002V20.4138Z" fill="#FF4B55"/>
<path d="M17.9905 23.3103L11.0101 28.068C11.0346 28.2428 11.1719 28.3793 11.3452 28.3793H11.8201L19.2572 23.3104H17.9905V23.3103Z" fill="#FF4B55"/>
<path d="M24.5312 23.3103H23.2645L30.6908 28.3718C30.8639 28.3524 31.0005 28.204 31.0005 28.0172V27.7195L24.5312 23.3103Z" fill="#FF4B55"/>
<path d="M11.0005 15.3825L17.32 19.6897H18.5867L11.2014 14.656C11.0834 14.7135 11.0005 14.8372 11.0005 14.9828V15.3825Z" fill="#FF4B55"/>
<path d="M23.9914 19.6897L30.9885 14.9205C30.9594 14.7515 30.8251 14.6207 30.6557 14.6207H30.1616L22.7247 19.6897H23.9914Z" fill="#FF4B55"/>
</g>
<path d="M15.2188 47.2031C14.2344 47.2031 13.4245 47.1068 12.7891 46.9141C12.1589 46.7214 11.6667 46.4505 11.3125 46.1016C10.9635 45.7526 10.7188 45.3438 10.5781 44.875C10.4427 44.4062 10.375 43.8958 10.375 43.3438V35.4609H12.6953V43.4453C12.6953 44.2057 12.9141 44.7188 13.3516 44.9844C13.7943 45.25 14.4167 45.3828 15.2188 45.3828C16.0312 45.3828 16.6302 45.2474 17.0156 44.9766C17.4062 44.7057 17.6016 44.1953 17.6016 43.4453V35.4609H19.9219V43.25C19.9219 43.7969 19.8568 44.3099 19.7266 44.7891C19.5964 45.2682 19.362 45.6901 19.0234 46.0547C18.6901 46.4141 18.2161 46.6953 17.6016 46.8984C16.987 47.1016 16.1927 47.2031 15.2188 47.2031ZM25.1016 43.5469V47H22.7812V35.4688H25.1016V41.0625L29.5859 35.4688H32.1484L28.0234 40.6172L32.4375 47H29.8203L26.375 41.9531L25.1016 43.5469Z" fill="black"/>
<rect x="40.5" y="8.5" width="307" height="48" rx="4.5" stroke="black"/>
<defs>
<clipPath id="clip0_16_2">
<rect width="20" height="13" fill="white" transform="translate(11 15)"/>
</clipPath>
</defs>
</svg>
