<svg width="66" height="90" viewBox="0 0 66 90" fill="none" xmlns="http://www.w3.org/2000/svg">
<path d="M24.2645 80.2518L23.7648 80.2691L24.2645 80.2518ZM9.19201 86.0674L9.1195 85.5727L9.19201 86.0674ZM46.3675 2.12975C46.4345 1.86185 46.2716 1.59039 46.0037 1.52341L41.6381 0.431972C41.3702 0.365002 41.0987 0.527875 41.0317 0.795772C40.9647 1.06367 41.1276 1.33514 41.3955 1.40212L45.2761 2.37228L44.3059 6.25284C44.239 6.52074 44.4018 6.79221 44.6697 6.85919C44.9376 6.92616 45.2091 6.76328 45.2761 6.49539L46.3675 2.12975ZM65.2795 81.5191C61.5469 82.3008 57.1309 83.5785 52.637 84.7956C48.1291 86.0165 43.5325 87.1797 39.3903 87.7528C35.2317 88.3281 31.6164 88.2948 29.0271 87.1985C27.7454 86.6558 26.7224 85.8557 25.9996 84.7395C25.275 83.6204 24.8306 82.15 24.7642 80.2344L23.7648 80.2691C23.8359 82.321 24.3154 83.9783 25.1602 85.283C26.007 86.5907 27.199 87.5104 28.6372 88.1193C31.488 89.3263 35.3323 89.3237 39.5274 88.7433C43.7388 88.1607 48.39 86.9819 52.8984 85.7608C57.4207 84.536 61.7895 83.2717 65.4845 82.4978L65.2795 81.5191ZM24.7642 80.2344C24.4239 70.4212 27.6417 66.2889 31.0537 64.8571C32.7884 64.1292 34.6341 64.0681 36.2144 64.3684C37.8112 64.6719 39.0649 65.3293 39.6478 65.9565L40.3803 65.2758C39.6017 64.4379 38.12 63.7126 36.4011 63.386C34.6656 63.0561 32.6151 63.1175 30.6667 63.935C26.7127 65.5942 23.4172 70.2448 23.7648 80.2691L24.7642 80.2344ZM39.6478 65.9565C40.1294 66.4749 40.31 67.6242 39.6798 69.3162C39.0642 70.9692 37.7149 72.9991 35.4249 75.0852C30.8498 79.2531 22.5647 83.6022 9.1195 85.5727L9.26451 86.5621C22.8527 84.5707 31.3401 80.1592 36.0983 75.8245C38.475 73.6593 39.9327 71.5024 40.6169 69.6652C41.2867 67.8669 41.2601 66.2226 40.3803 65.2758L39.6478 65.9565ZM9.1195 85.5727C6.54604 85.9498 4.72801 85.2919 3.49899 83.8964C2.24306 82.4703 1.53027 80.1943 1.37856 77.1982C1.0755 71.2129 3.0262 62.6543 6.76643 53.2869C14.2457 34.5551 28.7693 12.8593 46.1397 2.43723L45.6252 1.57973C27.9952 12.1576 13.3602 34.076 5.83772 52.9161C2.07706 62.3346 0.0660471 71.0514 0.379842 77.2488C0.536562 80.3439 1.27684 82.8862 2.74853 84.5573C4.24714 86.259 6.4313 86.9773 9.26451 86.5621L9.1195 85.5727Z" fill="white"/>
</svg>
